<?xml version="1.0" encoding="utf-8"?>
<!-- Generator: Adobe Illustrator 19.2.0, SVG Export Plug-In . SVG Version: 6.00 Build 0)  -->
<svg version="1.1" id="Layer_1" xmlns="http://www.w3.org/2000/svg" xmlns:xlink="http://www.w3.org/1999/xlink" x="0px" y="0px"
	 viewBox="0 0 612 792" style="enable-background:new 0 0 612 792;" xml:space="preserve">
<style type="text/css">
	.st0{fill:none;stroke:#000000;stroke-width:2;stroke-miterlimit:10;}
	.st1{fill:#FFFFFF;stroke:#000000;stroke-width:2;stroke-miterlimit:10;}
	.st2{fill:none;stroke:#000000;stroke-width:3;stroke-miterlimit:10;}
</style>
<g id="body">
	<g>
		<path d="M273.1,302.1c0,47.7,0,95.4,0,143.2c0,3.2,5,3.2,5,0c0-47.7,0-95.4,0-143.2C278.1,298.9,273.1,298.9,273.1,302.1
			L273.1,302.1z"/>
	</g>
</g>
<g id="left_arm_1_">
	<g>
		<path d="M271.4,444c-1.7,4.6-4.9,8.3-7.7,12.3c-2.6,3.7-5,7.6-7.1,11.6c-4.5,8.3-8.3,16.9-12.1,25.6c-1.3,2.9,3,5.5,4.3,2.5
			c4-9.2,8-18.4,13-27.1c4.5-7.9,11.3-14.9,14.4-23.5C277.3,442.3,272.5,441,271.4,444L271.4,444z"/>
	</g>
</g>
<g id="right_arm_1_">
	<g>
		<path d="M272,446.6c14.9,17.2,33.2,31.1,48.6,47.9c2.2,2.4,5.7-1.2,3.5-3.5c-15.4-16.8-33.7-30.6-48.6-47.9
			C273.4,440.6,269.9,444.2,272,446.6L272,446.6z"/>
	</g>
</g>
<g id="left_arm">
	<g>
		<path d="M241.5,349.7c3.1,0.3,5.8,3.8,8.1,5.8c2.7,2.4,5.4,4.7,8.1,7.1c5.1,4.5,10.3,9,15.4,13.5c2.4,2.1,6-1.4,3.5-3.5
			c-6.4-5.6-12.7-11.2-19.1-16.8c-4.6-4-9.6-10.5-16-11.1C238.3,344.4,238.3,349.4,241.5,349.7L241.5,349.7z"/>
	</g>
</g>
<g id="right_arm">
	<g>
		<path d="M277.7,377.2c11.4-10.9,23.6-20.9,36.6-29.9c2.6-1.8,0.1-6.2-2.5-4.3c-13.3,9.3-25.9,19.5-37.6,30.7
			C271.8,375.9,275.4,379.5,277.7,377.2L277.7,377.2z"/>
	</g>
</g>
<g id="Head">
	<g>
		<path d="M270,224c-16.6-0.3-35,2.6-38.6,21.8c-1.6,8.4-1.2,17.6-0.2,26.1c0.9,7.8,2.9,15.8,8.2,21.8c5.8,6.7,14.3,9,22.8,10
			c8.9,1,18.5,1.6,26.9-1.9c15.9-6.7,20.7-25.7,18.5-41.4c-2.7-19.8-17.5-38.3-38.9-37.3c-3.2,0.1-3.2,5.1,0,5
			c16.8-0.8,29.2,12.4,33,27.8c3.2,13.1,1.6,30.7-10.5,39.1c-6.6,4.6-15,4.8-22.7,4.3c-7.9-0.5-17-1.3-23.3-6.6
			c-10.4-8.9-10.2-26-9.7-38.5c0.3-8.6,2.5-17.3,10.6-21.6c7.2-3.8,16-3.7,23.9-3.6C273.2,229,273.2,224,270,224L270,224z"/>
	</g>
</g>
<g id="Left_eye">
	<g>
		<path d="M255.4,258.8c3.2,0,3.2-5,0-5C252.2,253.8,252.2,258.8,255.4,258.8L255.4,258.8z"/>
	</g>
</g>
<g id="right_eye">
	<g>
		<path d="M279.7,258.8c3.2,0,3.2-5,0-5C276.5,253.8,276.5,258.8,279.7,258.8L279.7,258.8z"/>
	</g>
</g>
<g id="frown">
	<g>
		<path d="M255.7,287.8c3.2-5.2,7.7-10.5,14-11.6c6.4-1.1,12.2,3.2,13.9,9.3c0.9,3.1,5.7,1.8,4.8-1.3c-2.1-7.5-8.9-13.3-16.9-13.2
			c-9,0.1-15.7,7.1-20.1,14.3C249.7,288,254,290.6,255.7,287.8L255.7,287.8z"/>
	</g>
</g>
<g id="Main_Structure">
	
		<rect id="Horizontal_Wood" x="186.9" y="40.4" transform="matrix(-1.225439e-10 1 -1 -1.225439e-10 334.019 -65.5359)" class="st0" width="25.8" height="187.6"/>
	<rect id="Vertical_Stand" x="106.3" y="146.9" class="st0" width="25.8" height="396.3"/>
	
		<rect id="Diagonal_Wood" x="169" y="112.4" transform="matrix(0.7071 0.7071 -0.7071 0.7071 190.3601 -71.8847)" class="st1" width="25.8" height="162.8"/>
	<line id="Base_Line" class="st2" x1="107.8" y1="543.6" x2="451.2" y2="543.6"/>
	<line id="Hook" class="st0" x1="266.5" y1="146.9" x2="266.5" y2="227.4"/>
</g>
</svg>
